<?xml version="1.0" encoding="UTF-8"?>
<svg width="1000px" height="1000px" viewBox="0 0 1000 1000" version="1.1" xmlns="http://www.w3.org/2000/svg" xmlns:xlink="http://www.w3.org/1999/xlink">
    <g id="ym-2" stroke="none" stroke-width="1" fill="none" fill-rule="evenodd">
        <g id="LOGO" transform="translate(-614, -665)">
            <g id="Msgport-Profile-Picture" transform="translate(614, 665)">
                <rect id="jx" stroke="#979797" fill="#000000" x="0.5" y="0.5" width="999" height="999"></rect>
                <path d="M499.793661,152.173913 C595.786204,152.173913 682.691141,191.105674 745.597942,254.049815 C808.504744,316.993957 847.413409,403.950478 847.413409,500 C847.413409,596.049522 808.504744,683.006043 745.597942,745.950185 C682.691141,808.894326 595.786204,847.826087 499.793661,847.826087 C403.801118,847.826087 316.896181,808.894326 253.98938,745.950185 C191.082579,683.006043 152.173913,596.049522 152.173913,500 C152.173913,403.950478 191.082579,316.993957 253.98938,254.049815 C316.896181,191.105674 403.801118,152.173913 499.793661,152.173913 Z M397.569175,741.337757 L396.732609,741.730512 C371.810007,753.358314 345.848364,763.13109 319.025765,770.871909 C370.724959,805.49765 432.90312,825.686403 499.793661,825.686403 C502.241205,825.686403 504.682439,825.659377 507.117083,825.605605 C487.424273,804.833901 469.369773,782.494741 453.160852,758.794247 C448.082943,760.609449 442.610667,761.597844 436.907677,761.597844 C423.56198,761.597844 411.479719,756.185221 402.733882,747.434193 C400.85073,745.549923 399.122263,743.510875 397.569175,741.337757 Z M602.95326,572.705785 L598.918599,578.125993 C565.634353,622.130691 525.747408,660.858001 480.733153,692.831752 C483.62322,699.031114 485.23672,705.947075 485.23672,713.240114 C485.23672,726.252779 480.100015,738.06499 471.744825,746.757387 C490.729011,774.456241 512.346262,800.209841 536.233189,823.656662 C649.641266,811.026618 745.450393,740.086082 793.052801,641.483672 C735.992342,606.846548 671.689261,582.991979 602.95326,572.705785 Z M311.43856,613.623063 L309.49464,614.518724 C277.959211,629.128435 248.146866,646.830479 220.446537,667.236222 C240.374793,700.517486 266.085989,729.936235 296.183509,754.112161 C328.503565,745.958167 359.605387,734.753588 389.169769,720.823109 C388.780538,718.35266 388.578633,715.819979 388.578633,713.240114 C388.578633,699.886495 393.988045,687.797062 402.733882,679.046034 C403.934863,677.844341 405.198758,676.705599 406.520199,675.63518 C403.219036,668.289678 400.078749,660.856547 397.10267,653.34038 C391.9069,654.413735 386.523793,654.977787 381.009024,654.977787 C359.141376,654.977787 339.343936,646.108911 325.013408,631.769877 C319.669549,626.422845 315.085889,620.315162 311.43856,613.623063 Z M436.907677,687.022067 C429.672058,687.022067 423.121434,689.956622 418.379716,694.701155 C413.637997,699.445688 410.705183,706.0002 410.705183,713.240114 C410.705183,720.480027 413.637997,727.034539 418.379716,731.779072 C423.121434,736.523606 429.672058,739.45816 436.907677,739.45816 C444.143295,739.45816 450.693919,736.523606 455.435637,731.779072 C460.177356,727.034539 463.11017,720.480027 463.11017,713.240114 C463.11017,706.0002 460.177356,699.445688 455.435637,694.701155 C450.693919,689.956622 444.143295,687.022067 436.907677,687.022067 Z M525.996155,567.001675 C503.66041,567.001675 481.656171,568.421818 460.068722,571.176901 C460.155363,572.688324 460.198782,574.2096 460.198782,575.741024 C460.198782,597.621652 451.335166,617.430843 437.004639,631.769877 C431.415745,637.362088 424.995338,642.122291 417.944905,645.84888 C420.643552,652.644066 423.484659,659.367534 426.462387,666.016507 C429.826604,665.273208 433.321526,664.882383 436.907677,664.882383 C448.294775,664.882383 458.762067,668.822884 467.021858,675.415429 C508.913361,645.797295 546.197763,610.087469 577.585206,569.558453 C560.619719,567.864758 543.408672,567.001675 525.996155,567.001675 Z M329.974154,379.045506 L329.506589,379.332952 C272.170166,414.684223 219.9959,457.613721 174.379256,506.725149 C175.395585,557.41522 187.993279,605.257386 209.628022,647.719695 C238.887302,626.405044 270.370922,607.970598 303.666961,592.832263 C302.456781,587.328295 301.819265,581.609154 301.819265,575.741024 C301.819265,553.860396 310.682881,534.051205 325.013408,519.712171 C334.867088,509.852642 347.305495,502.579374 361.224381,498.99727 C360.059026,484.533315 359.464751,469.905101 359.464751,455.138009 C359.464751,437.612067 360.301816,420.281744 361.938071,403.184874 C352.536926,399.919527 344.1134,394.561272 337.224098,387.667881 C334.568946,385.011153 332.141679,382.126403 329.974154,379.045506 Z M381.009024,518.643944 C365.251454,518.643944 350.985652,525.034753 340.659242,535.367292 C330.332833,545.699831 323.945815,559.974101 323.945815,575.741024 C323.945815,591.507947 330.332833,605.782217 340.659242,616.114756 C350.985652,626.447295 365.251454,632.838104 381.009024,632.838104 C396.766593,632.838104 411.032396,626.447295 421.358805,616.114756 C431.685215,605.782217 438.072232,591.507947 438.072232,575.741024 C438.072232,559.974101 431.685215,545.699831 421.358805,535.367292 C411.032396,525.034753 396.766593,518.643944 381.009024,518.643944 Z M811.150297,404.762315 L810.782323,403.571189 L812.832889,403.11647 C785.444513,409.260247 757.409568,413.69087 728.846026,416.289978 C726.641626,428.58263 720.694405,439.576392 712.227174,448.048648 C701.373907,458.908358 686.380258,465.625228 669.818731,465.625228 C667.995501,465.625228 666.191274,465.543823 664.409481,465.384448 C651.387128,495.804314 635.641029,524.781893 617.480618,552.00989 L617.112124,552.55961 L619.869304,553.028393 C685.457931,564.576262 746.952348,588.011418 802.05115,621.031453 C817.046426,583.622949 825.286859,542.77436 825.286859,500 L825.286859,498.226054 C825.108912,465.724114 820.178129,434.348877 811.150297,404.762315 Z M381.009024,539.035759 C391.13889,539.035759 400.309763,543.144135 406.948169,549.786482 C413.586575,556.428828 417.692515,565.605145 417.692515,575.741024 C417.692515,585.876903 413.586575,595.053219 406.948169,601.695566 C400.309763,608.337913 391.13889,612.446289 381.009024,612.446289 C370.879157,612.446289 361.708285,608.337913 355.069878,601.695566 C348.431472,595.053219 344.325533,585.876903 344.325533,575.741024 C344.325533,565.605145 348.431472,556.428828 355.069878,549.786482 C361.708285,543.144135 370.879157,539.035759 381.009024,539.035759 Z M381.009024,555.34921 C375.38132,555.34921 370.286391,557.631641 366.598387,561.321834 C362.910384,565.012026 360.629306,570.10998 360.629306,575.741024 C360.629306,581.372068 362.910384,586.470021 366.598387,590.160214 C370.286391,593.850407 375.38132,596.132838 381.009024,596.132838 C386.636727,596.132838 391.731656,593.850407 395.41966,590.160214 C399.107663,586.470021 401.388741,581.372068 401.388741,575.741024 C401.388741,570.10998 399.107663,565.012026 395.41966,561.321834 C391.731656,557.631641 386.636727,555.34921 381.009024,555.34921 Z M429.45217,387.667881 C417.757378,399.369615 401.641555,406.647693 383.826715,406.778485 C382.347001,422.698957 381.591301,438.830176 381.591301,455.138009 C381.591301,469.072742 382.143065,482.878523 383.225958,496.534669 C404.213005,497.112018 423.160044,505.859358 437.004639,519.712171 C445.290794,528.003245 451.74917,538.123184 455.723122,549.414954 C478.721331,546.410754 502.177989,544.861991 525.996155,544.861991 C548.597106,544.861991 570.87256,546.256504 592.747074,548.982399 C612.31158,520.986427 629.169282,490.957827 642.942659,459.276922 C637.170322,456.376861 631.931114,452.572158 627.410287,448.048648 C618.992068,439.625433 613.06477,428.709818 610.828816,416.502943 C551.054158,411.279177 493.574832,398.038107 439.47267,377.859556 L437.905859,377.273552 C435.446113,381.025173 432.610348,384.507829 429.45217,387.667881 Z M261.908792,277.704756 L261.198411,278.466112 C212.846727,330.579129 181.339436,398.557814 175.343716,473.731594 C218.798538,429.889977 267.512221,391.269491 320.462456,358.907468 C318.937584,353.374864 318.123039,347.545848 318.123039,341.526473 C318.123039,333.944391 319.415416,326.664339 321.791775,319.894835 C301.232023,307.063599 281.434042,293.122883 262.480762,278.158535 L261.908792,277.704756 Z M669.818731,367.74452 C659.367281,367.74452 649.90527,371.983321 643.05612,378.836536 C636.206971,385.689751 631.970684,395.157379 631.970684,405.615032 C631.970684,416.072685 636.206971,425.540313 643.05612,432.393528 C649.90527,439.246742 659.367281,443.485544 669.818731,443.485544 C680.27018,443.485544 689.732192,439.246742 696.581341,432.393528 C703.43049,425.540313 707.666777,416.072685 707.666777,405.615032 C707.666777,395.157379 703.43049,385.689751 696.581341,378.836536 C689.732192,371.983321 680.27018,367.74452 669.818731,367.74452 Z M685.281905,270.043745 L682.003673,270.173534 C598.784078,274.226612 519.159908,291.979383 445.335978,321.226553 C447.424151,327.616551 448.553229,334.439578 448.553229,341.526473 C448.553229,346.832838 447.920225,351.991269 446.725652,356.930289 C498.577629,376.318705 553.647842,389.108793 610.914219,394.280772 C613.209916,382.254001 619.094876,371.501762 627.410287,363.181415 C638.263554,352.321706 653.257203,345.604836 669.818731,345.604836 C672.344113,345.604836 674.833039,345.761014 677.276389,346.064244 C681.757661,321.295102 684.470582,295.909311 685.281905,270.043745 Z M718.730052,269.281189 C714.955935,269.281189 711.188394,269.309341 707.43892,269.373022 C706.618174,297.825831 703.590446,325.727658 698.52118,352.910985 C703.574417,355.671362 708.187585,359.139428 712.227174,363.181415 C720.493682,371.452829 726.358242,382.127617 728.684167,394.068417 C754.070369,391.684621 779.022041,387.80189 803.449437,382.51075 C786.988934,339.905817 761.815207,301.634037 730.123422,269.876478 L729.384433,269.354867 C725.837834,269.306195 722.286861,269.281189 718.730052,269.281189 Z M383.338134,298.412352 C371.439561,298.412352 360.667425,303.238064 352.869932,311.040185 C345.072439,318.842307 340.249589,329.620837 340.249589,341.526473 C340.249589,353.432109 345.072439,364.210639 352.869932,372.012761 C360.667425,379.814882 371.439561,384.640594 383.338134,384.640594 C395.236707,384.640594 406.008844,379.814882 413.806337,372.012761 C421.603829,364.210639 426.426679,353.432109 426.426679,341.526473 C426.426679,329.620837 421.603829,318.842307 413.806337,311.040185 C406.008844,303.238064 395.236707,298.412352 383.338134,298.412352 Z M499.793661,174.313597 C487.430977,174.313597 475.229253,175.003128 463.224818,176.345939 C442.022793,209.345434 424.474577,244.916617 411.15193,282.48856 C417.98687,285.717573 424.170406,290.100165 429.45217,295.385065 C431.389898,297.323943 433.206253,299.384267 434.888852,301.553647 C512.621488,270.462596 596.647022,251.761777 684.52302,247.893002 L685.507619,247.85114 L685.504798,247.437228 C685.445804,242.349972 685.313271,237.280403 685.108209,232.229536 C632.52428,195.710246 568.656132,174.313597 499.793661,174.313597 Z M434.417857,180.884422 L433.035114,181.169695 C374.031483,193.475453 320.882662,221.760898 277.948627,261.0012 L277.27044,261.623188 L277.801643,262.04186 C295.343828,275.803316 313.63095,288.659496 332.590785,300.539569 C334.043923,298.739674 335.590899,297.019233 337.224098,295.385065 C349.025709,283.576449 365.329483,276.272668 383.338134,276.272668 C385.50704,276.272668 387.651217,276.378609 389.765778,276.585603 C401.393748,243.476959 416.166409,211.84814 433.724158,182.058783 L434.417857,180.884422 Z" id="dd-6" fill="#FFFFFF" fill-rule="nonzero"></path>
            </g>
        </g>
    </g>
</svg>
